<svg width="30" height="30" viewBox="0 0 30 30" fill="none" xmlns="http://www.w3.org/2000/svg">
<path d="M24.825 10.1125C24.825 10.6375 24.7875 11.15 24.725 11.6375C24.15 11.3875 23.525 11.25 22.8625 11.25C21.3375 11.25 19.9875 11.9875 19.15 13.1125C18.3 11.9875 16.95 11.25 15.425 11.25C12.8625 11.25 10.7875 13.3375 10.7875 15.925C10.7875 19.275 12.5625 21.8375 14.5375 23.575C14.475 23.6125 14.4125 23.625 14.35 23.65C13.975 23.7875 13.35 23.7875 12.975 23.65C9.73751 22.5375 2.5 17.9375 2.5 10.1125C2.5 6.66249 5.27499 3.875 8.69999 3.875C10.7375 3.875 12.5375 4.84999 13.6625 6.36249C14.8 4.84999 16.6 3.875 18.625 3.875C22.05 3.875 24.825 6.66249 24.825 10.1125Z" stroke="#F5F5F5" stroke-width="1.5" stroke-linecap="round" stroke-linejoin="round"/>
<path d="M27.5001 15.925C27.5001 21.775 22.0876 25.225 19.6626 26.05C19.3751 26.15 18.9126 26.15 18.6251 26.05C17.5876 25.7 16.0001 24.8625 14.5376 23.575C12.5626 21.8375 10.7876 19.275 10.7876 15.925C10.7876 13.3375 12.8626 11.25 15.4251 11.25C16.9501 11.25 18.3001 11.9875 19.1501 13.1125C19.9876 11.9875 21.3376 11.25 22.8626 11.25C23.5251 11.25 24.1501 11.3875 24.7251 11.6375C26.3626 12.3625 27.5001 14 27.5001 15.925Z" stroke="#F5F5F5" stroke-width="1.5" stroke-linecap="round" stroke-linejoin="round"/>
</svg>
