<svg width="30" height="30" viewBox="0 0 30 30" fill="none" xmlns="http://www.w3.org/2000/svg">
<path d="M15.025 3.6377C10.8875 3.6377 7.52499 7.0002 7.52499 11.1377V14.7502C7.52499 15.5127 7.19999 16.6752 6.81249 17.3252L5.37499 19.7127C4.48749 21.1877 5.09999 22.8252 6.72499 23.3752C12.1125 25.1752 17.925 25.1752 23.3125 23.3752C24.825 22.8752 25.4875 21.0877 24.6625 19.7127L23.225 17.3252C22.85 16.6752 22.525 15.5127 22.525 14.7502V11.1377C22.525 7.0127 19.15 3.6377 15.025 3.6377Z" stroke="#F5F5F5" stroke-width="1.5" stroke-miterlimit="10" stroke-linecap="round"/>
<path d="M17.3374 3.9998C16.9499 3.8873 16.5499 3.7998 16.1374 3.7498C14.9374 3.5998 13.7874 3.6873 12.7124 3.9998C13.0749 3.0748 13.9749 2.4248 15.0249 2.4248C16.0749 2.4248 16.9749 3.0748 17.3374 3.9998Z" stroke="#F5F5F5" stroke-width="1.5" stroke-miterlimit="10" stroke-linecap="round" stroke-linejoin="round"/>
<path d="M18.7749 23.8252C18.7749 25.8877 17.0874 27.5752 15.0249 27.5752C13.9999 27.5752 13.0499 27.1502 12.3749 26.4752C11.6999 25.8002 11.2749 24.8502 11.2749 23.8252" stroke="#F5F5F5" stroke-width="1.5" stroke-miterlimit="10"/>
</svg>
