<svg width="81" height="24" viewBox="0 0 81 24" fill="none" xmlns="http://www.w3.org/2000/svg">
<path d="M0.24 24V0.735998H11.44C16.56 0.735998 18.992 3.968 18.992 7.904C18.992 12.416 16.048 16.064 9.872 16.064H4.72V24H0.24ZM4.72 12.352H10.096C12.208 12.352 14.352 11.584 14.352 8.256C14.352 5.472 12.72 4.544 10.448 4.544H4.72V12.352ZM22.365 24V0.735998H26.845V20.16H38.397V24H22.365ZM44.9585 24V14.688L36.2865 0.735998H41.6945L45.6945 7.584L47.2945 10.624H47.4545L49.0545 7.584L52.9905 0.735998H58.2705L49.5985 14.496V24H44.9585ZM67.396 24V14.688L58.724 0.735998H64.132L68.132 7.584L69.732 10.624H69.892L71.492 7.584L75.428 0.735998H80.708L72.036 14.496V24H67.396Z" fill="#F5F5F5"/>
</svg>
